<svg xmlns="http://www.w3.org/2000/svg" width="363" height="198" viewBox="-116 321.89 363 198" enable-background="new -116 321.89 363 198"><path d="M229.9 342.99h-.4c-1.5-6.2-7.1-10.9-13.7-10.9-2.9 0-5.5.9-7.8 2.3-4.2-6.9-11.8-11.5-20.5-11.5-12 0-21.9 8.7-23.8 20.2-6.8 1-12 6.9-12 14 0 7.8 6.3 14.2 14.1 14.2h64.1c7.8 0 14.1-6.4 14.1-14.2s-6.3-14.1-14.1-14.1z" fill="#81B9E3"/><ellipse transform="matrix(-.707 .707 -.707 -.707 400.16 651.36)" cx="65.179" cy="408.556" rx="43.6" ry="43.3" fill="none"/><path d="M34.5 377.99c-17.1 17-17.2 44.5-.2 61.5 16.9 16.9 44.5 16.8 61.5-.2s17.1-44.6.2-61.5c-16.9-16.9-44.5-16.8-61.5.2z" fill="none"/><path d="M119.8 353.89c-30-30-78.8-30-108.9.2-29 29-30.1 75.4-3.2 105.6 1.2-2.1 18.3 16.1 30.4 16.1 12.1 0 22.8-11.9 26.2-22.8h2.5c3.4 10.9 13.9 22.8 26 22.8s29.3-18.6 30.3-16.7c26.6-30.3 25.5-76.4-3.3-105.2zm-24 85.4c-17 17-44.6 17.1-61.5.2-17-17-16.9-44.5.2-61.5 17-17 44.6-17.1 61.5-.2 16.9 16.9 16.8 44.5-.2 61.5z" fill="#fff"/><path d="M125.9 345.89c4.9 4.9 4.9 12.9 0 17.8l-21.5 21.5c-4.9 4.9-12.9 4.9-17.8 0s-4.9-12.9 0-17.8l21.5-21.5c4.9-5 12.9-5 17.8 0zm-84 84c-4.9-4.9-12.9-4.9-17.8 0l-21.5 21.5c-4.4 4.4-4.9 11.1-1.5 16.1.4-.1.7-.1 1.2-.1l4.6-.1c.7-1.5 2.1-2.5 4.3-2.5 3.8 0 5.4 3.5 4.7 6.3.3.3.6.6.9.8 1.4-.6 2.6-1.5 3.7-2.6l21.5-21.5c4.8-5 4.8-13-.1-17.9zm-39.3-84.1c4.9-4.9 12.9-4.9 17.8 0l21.5 21.5c4.9 4.9 4.9 12.9 0 17.8s-12.9 4.9-17.8 0l-21.5-21.5c-5-4.9-5-12.8 0-17.8zm125.1 107.3l-21.5-21.5c-4.9-4.9-12.9-4.9-17.8 0s-4.9 12.9 0 17.8l21.4 21.6c.5.5 1 .9 1.5 1.3l.7-.6c-.6.5-.2.1.2-.2l.1-.9c.1-1 .2-2.1.4-3.1.6-3.4 4.7-4.3 7.3-3 2.1 1 3.8 2.8 5.2 4.6.7.9 1.1 1.9 1.3 2.8l1.1-.9c5-5 5-12.9.1-17.9z" fill="#F14600"/><path d="M149.3 474.69c-12.5 0-23.2-7.7-27.7-18.5-.4-1.1-.8-2.1-1.2-3.3h-2.3c-.4 1.1-.8 2.2-1.3 3.3-4.3 9.2-13.6 15.5-24.4 15.5s-20.1-6.4-24.4-15.5c-.5-1-.9-2.1-1.3-3.2v-.1h-2.5v.1c-.3 1.1-.8 2.1-1.3 3.2-4.3 9.2-13.6 15.5-24.4 15.5s-20.1-6.4-24.4-15.5c-.5-1.1-.9-2.1-1.3-3.3h-2.3c-.3 1.1-.7 2.2-1.2 3.3-4.5 10.8-15.2 18.5-27.7 18.5-8.9 0-17-3.9-22.4-10.1 2.8 11.3 13 19.7 25.3 19.7 11.5 0 21.3-7.4 24.7-17.8h2.6c3.5 11 13.8 19 26 19s22.5-8 26-19h3.3c3.5 11 13.8 19 26 19s22.5-8 26-19h2.6c3.4 10.3 13.2 17.8 24.7 17.8 12.2 0 22.5-8.4 25.3-19.7-5.4 6.2-13.4 10.1-22.4 10.1z" fill="#2F7CB5"/></svg>
