<svg xmlns="http://www.w3.org/2000/svg" viewBox="0 0 60 60" enable-background="new 0 0 60 60"><path d="M16.03 42.782h23.258c2.141 0 3.876-1.719 3.876-3.838v-15.354c0-2.12-1.736-3.838-3.876-3.838h-23.258c-2.141 0-3.876 1.719-3.876 3.838v15.354c0 2.12 1.735 3.838 3.876 3.838zm-.43-1.971l8.745-9.227 3.314 2.481 3.171-2.496 8.889 9.243c-.139.031-23.981.031-24.119-.001zm25.627-1.867c0 .195-.038.379-.092.555l-8.63-9.191 8.722-6.717v15.353zm-.97-17.273l-12.598 9.596-12.598-9.596h25.196zm-26.165 1.919l8.722 6.717-8.63 9.191c-.054-.176-.092-.36-.092-.555v-15.353z"/><path d="M56.81 20.597l-4.136-4.549c-.164-.162-.43-.162-.594 0-.094.095-.128.22-.114.345v2.449c-3.434 0-6.218 2.789-6.218 6.231 0 .663.104 1.301.296 1.9.064.2.137.395.22.586.061-.325.154-.64.273-.942.839-2.118 3.03-3.628 5.421-3.628l.007 2.445c-.014.12.019.249.117.344l.2.118c.099.024.197.012.285-.041l.202-.184c1.343-1.484 2.692-2.962 4.039-4.442.087-.087.125-.203.119-.315.008-.118-.03-.23-.117-.317z"/></svg>