<svg xmlns="http://www.w3.org/2000/svg" viewBox="0 0 60 60" enable-background="new 0 0 60 60"><path d="M30.396 27.841c-1.585 0-2.875 1.29-2.875 2.875s1.29 2.875 2.875 2.875 2.875-1.29 2.875-2.875-1.29-2.875-2.875-2.875zM44.383 29.716h1.104c-.502-7.492-6.564-13.468-14.091-13.838v1.325c0 .553-.447 1-1 1s-1-.447-1-1v-1.297c-7.28.618-13.068 6.496-13.558 13.811h.862c.553 0 1 .447 1 1s-.447 1-1 1h-.861c.49 7.315 6.278 13.193 13.558 13.811v-1.061c0-.553.447-1 1-1s1 .447 1 1v1.088c7.527-.37 13.589-6.346 14.091-13.838h-1.104c-.553 0-1-.447-1-1s.447-1.001.999-1.001zm-6.778 2h-2.438c-.395 1.887-1.883 3.375-3.77 3.77v2.438c0 .553-.447 1-1 1s-1-.447-1-1v-2.438c-1.887-.395-3.375-1.883-3.77-3.77h-2.439c-.553 0-1-.447-1-1s.447-1 1-1h2.439c.395-1.887 1.883-3.375 3.77-3.77v-2.438c0-.553.447-1 1-1s1 .447 1 1v2.438c1.887.395 3.375 1.883 3.77 3.77h2.438c.553 0 1 .447 1 1s-.448 1-1 1z" fill="none"/><path d="M37.605 29.716h-2.438c-.395-1.887-1.883-3.375-3.77-3.77v-2.438c0-.553-.447-1-1-1s-1 .447-1 1v2.438c-1.887.395-3.375 1.883-3.77 3.77h-2.439c-.553 0-1 .447-1 1s.447 1 1 1h2.439c.395 1.887 1.883 3.375 3.77 3.77v2.438c0 .553.447 1 1 1s1-.447 1-1v-2.438c1.887-.395 3.375-1.883 3.77-3.77h2.438c.553 0 1-.447 1-1s-.448-1-1-1zm-7.209 3.875c-1.585 0-2.875-1.29-2.875-2.875s1.29-2.875 2.875-2.875 2.875 1.29 2.875 2.875-1.29 2.875-2.875 2.875zM48.716 29.716h-1.229c-.508-8.594-7.462-15.464-16.091-15.838v-1.009c0-.553-.447-1-1-1s-1 .447-1 1v1.036c-8.382.627-15.061 7.394-15.558 15.811h-1.472c-.552 0-1 .447-1 1s.448 1 1 1h1.472c.497 8.417 7.176 15.184 15.558 15.811v1.273c0 .553.447 1 1 1s1-.447 1-1v-1.246c8.629-.374 15.583-7.243 16.091-15.838h1.229c.553 0 1-.447 1-1s-.447-1-1-1zm-4.333 2h1.104c-.502 7.492-6.564 13.468-14.091 13.838v-1.088c0-.553-.447-1-1-1s-1 .447-1 1v1.061c-7.28-.618-13.068-6.496-13.558-13.811h.862c.553 0 1-.447 1-1s-.447-1-1-1h-.861c.49-7.315 6.278-13.193 13.558-13.811v1.297c0 .553.447 1 1 1s1-.447 1-1v-1.325c7.527.37 13.589 6.346 14.091 13.838h-1.104c-.553 0-1 .447-1 1s.447 1.001.999 1.001z"/></svg>