<svg xmlns="http://www.w3.org/2000/svg" viewBox="0 0 60 60" enable-background="new 0 0 60 60"><path fill="none" d="M39.218 44.704h7.705v-6.297h-7.705z"/><path fill="none" d="M21.302 34.132h5.714v10.571h-5.714z"/><path d="M44.932 29.704h-.772v-10.004c0-2.759-2.239-4.996-5-4.996h-22c-2.763 0-5 2.237-5 4.996v23.541999999999998c0 1.919 1.554 3.463 3.47 3.463h33.294000000000004v-13.002c-.001-2.207-1.787-3.999-3.992-3.999zm-30.772-9.818v-.187c0-1.654 1.342-2.996 3-2.996h22c1.657 0 3 1.342 3 2.996v3.004h-28v-2.817zm12.857 24.818h-5.714v-10.572h5.714v10.572zm10.201-11.001v11.001h-8.201v-10.572c0-1.105-.895-2-2-2h-5.714c-1.105 0-2 .895-2 2v10.571h-3.673c-.816 0-1.47-.653-1.47-1.463v-18.536h28v5h-.951c-2.198 0-3.991 1.794-3.991 3.999zm9.705 11.001h-7.706v-11.001c0-1.101.898-1.999 1.991-1.999h3.723c1.099 0 1.991.895 1.991 1.999v11.001z"/><path d="M40.571 33.162h5v3.254h-5z"/><path d="M48.159 37.707v1.4h-9.156v-1.4"/></svg>