<svg xmlns="http://www.w3.org/2000/svg" viewBox="0 0 60 60" enable-background="new 0 0 60 60"><path d="M45.562 15.453c-.704-.707-1.68-1.097-2.747-1.098h-.001c-1.228 0-2.481.522-3.353 1.396l-5.913 5.909-11.213-4.196-.245-.069c-1.158-.306-2.742-.719-4.488 1.036-1.933 1.936-1.933 3.899 0 5.838l7.321 6.01-4.09 4.088-4.362-1.092c-1.327-.344-2.139.175-2.604.689l-.081.08c-.354.344-1.09 1.06-1.098 2.038-.003.371.103.924.626 1.45l5.715 4.461 4.372 5.629.081.092c.471.474.944.649 1.392.649.952 0 1.789-.796 2.236-1.223.895-.896.733-1.653.578-2.386l-1.031-4.554 4.065-4.085 5.987 7.33c.962.965 1.957 1.455 2.957 1.456h.003c1.409 0 2.354-.944 2.865-1.456 1.749-1.755 1.335-3.342 1.032-4.501l-4.225-11.493 5.893-5.923c1.542-1.546 2.041-4.355.328-6.075zm-1.744 4.664l-6.794 6.828 4.582 12.405.025.1c.267 1.021.428 1.639-.515 2.585-.366.366-.866.866-1.447.866h-.001c-.561 0-1.148-.473-1.477-.794l-7.323-8.975-6.405 6.437 1.228 5.41.041.192.093.404-.112.135c-.551.525-.758.631-.733.66l-.044-.033-4.403-5.669-5.845-4.563c.011-.078.104-.249.493-.626l.187-.192c.08-.088.174-.187.611-.074l5.469 1.369 6.451-6.449-8.914-7.31c-1.457-1.485-.699-2.244.035-2.979.936-.941 1.548-.779 2.564-.514l12.469 4.655 6.825-6.821c.505-.506 1.229-.809 1.937-.809h.001c.376.001.912.089 1.331.51.858.861.516 2.405-.329 3.252z"/></svg>